<svg width="77" height="32" viewBox="0 0 77 32" fill="none" xmlns="http://www.w3.org/2000/svg">
<rect width="77" height="32" rx="8" fill="#C6A664"/>
<g clip-path="url(#clip0_5298_3061)">
<path d="M22.0013 12.667V19.3337M25.3346 16.0003H18.668" stroke="white" stroke-width="1.5" stroke-linecap="round" stroke-linejoin="round"/>
<path d="M22.0013 24.3337C26.6037 24.3337 30.3346 20.6027 30.3346 16.0003C30.3346 11.398 26.6037 7.66699 22.0013 7.66699C17.3989 7.66699 13.668 11.398 13.668 16.0003C13.668 20.6027 17.3989 24.3337 22.0013 24.3337Z" stroke="white" stroke-width="1.5"/>
</g>
<path d="M40.1738 21H38.957V11.1357H40.1533L45.5537 18.8809H45.6152V11.1357H46.832V21H45.6357L40.2354 13.2822H40.1738V21ZM51.4121 14.7998C50.2979 14.7998 49.5186 15.6543 49.4434 16.8369H53.3057C53.2783 15.6475 52.5332 14.7998 51.4121 14.7998ZM53.2783 18.9629H54.4473C54.2422 20.207 53.0391 21.123 51.4873 21.123C49.4502 21.123 48.2129 19.708 48.2129 17.4727C48.2129 15.2646 49.4707 13.7676 51.4326 13.7676C53.3535 13.7676 54.5361 15.1621 54.5361 17.3154V17.7666H49.4365V17.835C49.4365 19.1953 50.2363 20.0908 51.5146 20.0908C52.417 20.0908 53.0801 19.6328 53.2783 18.9629ZM64.7832 13.8906L62.8008 21H61.5908L59.9844 15.4971H59.957L58.3574 21H57.1475L55.1582 13.8906H56.3408L57.7627 19.6738H57.79L59.3965 13.8906H60.5449L62.1582 19.6738H62.1855L63.6074 13.8906H64.7832Z" fill="white"/>
<defs>
<clipPath id="clip0_5298_3061">
<rect width="20" height="20" fill="white" transform="translate(12 6)"/>
</clipPath>
</defs>
</svg>
