<svg width="24" height="24" viewBox="0 0 24 24" fill="none" xmlns="http://www.w3.org/2000/svg">
<path d="M9.6084 6.11211C9.93028 5.29596 11.0853 5.29596 11.4072 6.11211L12.3181 8.4216C12.9077 9.91665 14.0911 11.1001 15.5862 11.6897L17.8957 12.6006C18.7118 12.9225 18.7118 14.0775 17.8957 14.3994L15.5862 15.3103C14.0911 15.8999 12.9077 17.0833 12.3181 18.5784L11.4072 20.8879C11.0853 21.704 9.93028 21.704 9.6084 20.8879L8.69755 18.5784C8.10791 17.0833 6.92446 15.8999 5.42941 15.3103L3.11992 14.3994C2.30378 14.0775 2.30378 12.9225 3.11992 12.6006L5.42941 11.6897C6.92446 11.1001 8.10791 9.91665 8.69755 8.4216L9.6084 6.11211Z" stroke="#C6A664" stroke-width="1.5"/>
<path d="M18.1549 2.72954C18.2756 2.42349 18.7088 2.42349 18.8295 2.72954L19.171 3.5956C19.3922 4.15624 19.836 4.60004 20.3966 4.82115L21.2627 5.16272C21.5687 5.28343 21.5687 5.71657 21.2627 5.83728L20.3966 6.17885C19.836 6.39996 19.3922 6.84376 19.171 7.4044L18.8295 8.27046C18.7088 8.57651 18.2756 8.57651 18.1549 8.27046L17.8134 7.4044C17.5922 6.84376 17.1484 6.39996 16.5878 6.17885L15.7217 5.83728C15.4157 5.71657 15.4157 5.28343 15.7217 5.16272L16.5878 4.82115C17.1484 4.60004 17.5922 4.15624 17.8134 3.5956L18.1549 2.72954Z" fill="white" stroke="#C6A664"/>
</svg>
