<svg width="48" height="48" viewBox="0 0 48 48" fill="none" xmlns="http://www.w3.org/2000/svg">
<rect x="0.5" y="0.5" width="47" height="47" rx="23.5" fill="#F8FAFB"/>
<rect x="0.5" y="0.5" width="47" height="47" rx="23.5" stroke="#DFE1E7"/>
<path d="M27.177 17.177C26.094 18.261 24.037 17.962 24.037 17.962C24.037 17.962 23.739 15.906 24.823 14.822C25.906 13.739 27.963 14.038 27.963 14.038C27.963 14.038 28.261 16.093 27.177 17.177ZM16 26.06C16 29.341 18.196 33.11 20.419 33.907C21.189 34.183 21.986 33.802 22.648 33.327C23.15 32.967 23.758 32.624 24.25 32.624C24.74 32.624 25.35 32.967 25.851 33.327C26.513 33.802 27.31 34.183 28.081 33.907C29.66 33.341 31.226 31.274 32 28.947C30.5 28.517 29.406 27.161 29.406 25.554C29.406 24.082 30.325 22.82 31.632 22.289C30.79 20.793 29.414 20 27.859 20C27.055 20 26.315 20.324 25.719 20.713C24.765 21.333 23.734 21.333 22.781 20.713C22.184 20.324 21.445 20 20.641 20C18.077 20 16 22.155 16 26.06Z" fill="black" stroke="black" stroke-width="0.75" stroke-linecap="round" stroke-linejoin="round"/>
</svg>
