<svg width="32" height="32" viewBox="0 0 32 32" fill="none" xmlns="http://www.w3.org/2000/svg">
<path d="M8.1311 25.3334C6.39762 25.1628 5.09902 24.6422 4.22811 23.7712C2.66602 22.2092 2.66602 19.695 2.66602 14.6667V14C2.66602 8.97172 2.66602 6.45757 4.22811 4.89547C5.79022 3.33337 8.30436 3.33337 13.3327 3.33337H18.666C23.6943 3.33337 26.2085 3.33337 27.7705 4.89547C29.3327 6.45757 29.3327 8.97172 29.3327 14V14.6667C29.3327 19.695 29.3327 22.2092 27.7705 23.7712C26.2085 25.3334 23.6943 25.3334 18.666 25.3334C17.9187 25.35 17.3235 25.4068 16.7388 25.54C15.1409 25.9079 13.6613 26.7255 12.1992 27.4386C10.1157 28.4544 9.07402 28.9624 8.42027 28.4868C7.1696 27.5554 8.39207 24.6692 8.66602 23.3334" stroke="#C6A664" stroke-width="1.5" stroke-linecap="round"/>
</svg>
