<svg width="48" height="48" viewBox="0 0 48 48" fill="none" xmlns="http://www.w3.org/2000/svg">
<g filter="url(#filter0_i_5446_5114)">
<path d="M24 48C37.2548 48 48 37.2548 48 24C48 10.7452 37.2548 0 24 0C10.7452 0 0 10.7452 0 24C0 37.2548 10.7452 48 24 48Z" fill="#C6A664"/>
</g>
<path d="M24.0024 10.9939C27.3264 10.9939 30.6504 12.2639 33.1944 14.8059C34.4035 16.0123 35.3627 17.4454 36.0172 19.023C36.6717 20.6006 37.0086 22.2919 37.0086 23.9999C37.0086 25.7079 36.6717 27.3992 36.0172 28.9768C35.3627 30.5544 34.4035 31.9875 33.1944 33.1939C31.988 34.403 30.5549 35.3622 28.9773 36.0167C27.3996 36.6712 25.7084 37.0081 24.0004 37.0081C22.2924 37.0081 20.6011 36.6712 19.0235 36.0167C17.4459 35.3622 16.0128 34.403 14.8064 33.1939C13.5973 31.9875 12.6381 30.5544 11.9836 28.9768C11.3291 27.3992 10.9922 25.7079 10.9922 23.9999C10.9922 22.2919 11.3291 20.6006 11.9836 19.023C12.6381 17.4454 13.5973 16.0123 14.8064 14.8059C16.0124 13.5959 17.4457 12.6363 19.0239 11.9821C20.6021 11.3279 22.294 10.992 24.0024 10.9939ZM29.9224 19.9979C29.7331 20.016 29.5528 20.0875 29.4024 20.2039L22.0944 25.6839L18.7084 22.2999C17.9744 21.5359 16.5284 22.9799 17.2944 23.7139L21.2944 27.7139C21.4678 27.8779 21.6926 27.9768 21.9306 27.994C22.1687 28.0111 22.4053 27.9454 22.6004 27.8079L30.6004 21.8079C31.2724 21.3179 30.8584 20.0119 30.0264 19.9999C29.9924 19.9982 29.9584 19.9982 29.9244 19.9999L29.9224 19.9979Z" fill="white"/>
<defs>
<filter id="filter0_i_5446_5114" x="0" y="0" width="48" height="48" filterUnits="userSpaceOnUse" color-interpolation-filters="sRGB">
<feFlood flood-opacity="0" result="BackgroundImageFix"/>
<feBlend mode="normal" in="SourceGraphic" in2="BackgroundImageFix" result="shape"/>
<feColorMatrix in="SourceAlpha" type="matrix" values="0 0 0 0 0 0 0 0 0 0 0 0 0 0 0 0 0 0 127 0" result="hardAlpha"/>
<feOffset/>
<feGaussianBlur stdDeviation="4"/>
<feComposite in2="hardAlpha" operator="arithmetic" k2="-1" k3="1"/>
<feColorMatrix type="matrix" values="0 0 0 0 1 0 0 0 0 1 0 0 0 0 1 0 0 0 0.25 0"/>
<feBlend mode="normal" in2="shape" result="effect1_innerShadow_5446_5114"/>
</filter>
</defs>
</svg>
