<svg width="32" height="32" viewBox="0 0 32 32" fill="none" xmlns="http://www.w3.org/2000/svg">
<path d="M10.6654 4C11.3726 4 12.0509 4.28095 12.551 4.78105C13.0511 5.28115 13.332 5.95942 13.332 6.66667V14.6667C13.332 15.3739 13.0511 16.0522 12.551 16.5523C12.0509 17.0524 11.3726 17.3333 10.6654 17.3333C10.3117 17.3333 9.9726 17.4738 9.72255 17.7239C9.47251 17.9739 9.33203 18.313 9.33203 18.6667V20C9.33203 20.7072 9.61298 21.3855 10.1131 21.8856C10.6132 22.3857 11.2915 22.6667 11.9987 22.6667C12.3523 22.6667 12.6915 22.8071 12.9415 23.0572C13.1916 23.3072 13.332 23.6464 13.332 24V26.6667C13.332 27.0203 13.1916 27.3594 12.9415 27.6095C12.6915 27.8595 12.3523 28 11.9987 28C9.87697 28 7.84213 27.1571 6.34184 25.6569C4.84155 24.1566 3.9987 22.1217 3.9987 20V6.66667C3.9987 5.95942 4.27965 5.28115 4.77975 4.78105C5.27984 4.28095 5.95812 4 6.66536 4H10.6654Z" stroke="#C6A664" stroke-width="2.66667" stroke-linecap="round" stroke-linejoin="round"/>
<path d="M25.3333 4C26.0406 4 26.7189 4.28095 27.219 4.78105C27.719 5.28115 28 5.95942 28 6.66667V14.6667C28 15.3739 27.719 16.0522 27.219 16.5523C26.7189 17.0524 26.0406 17.3333 25.3333 17.3333C24.9797 17.3333 24.6406 17.4738 24.3905 17.7239C24.1405 17.9739 24 18.313 24 18.6667V20C24 20.7072 24.281 21.3855 24.781 21.8856C25.2811 22.3857 25.9594 22.6667 26.6667 22.6667C27.0203 22.6667 27.3594 22.8071 27.6095 23.0572C27.8595 23.3072 28 23.6464 28 24V26.6667C28 27.0203 27.8595 27.3594 27.6095 27.6095C27.3594 27.8595 27.0203 28 26.6667 28C24.5449 28 22.5101 27.1571 21.0098 25.6569C19.5095 24.1566 18.6667 22.1217 18.6667 20V6.66667C18.6667 5.95942 18.9476 5.28115 19.4477 4.78105C19.9478 4.28095 20.6261 4 21.3333 4H25.3333Z" stroke="#C6A664" stroke-width="2.66667" stroke-linecap="round" stroke-linejoin="round"/>
</svg>
