<svg width="32" height="32" viewBox="0 0 32 32" fill="none" xmlns="http://www.w3.org/2000/svg">
<path d="M22.6615 16.0002C22.6615 19.682 19.6767 22.6668 15.9948 22.6668C12.3129 22.6668 9.32812 19.682 9.32812 16.0002C9.32812 12.3183 12.3129 9.3335 15.9948 9.3335" stroke="#C6A664" stroke-width="1.5" stroke-linecap="round"/>
<path d="M18.6719 2.93322C17.8103 2.75832 16.9184 2.6665 16.0052 2.6665C8.64141 2.6665 2.67188 8.63604 2.67188 15.9998C2.67188 23.3636 8.64141 29.3332 16.0052 29.3332C23.3689 29.3332 29.3385 23.3636 29.3385 15.9998C29.3385 15.0866 29.2467 14.1948 29.0719 13.3332" stroke="#C6A664" stroke-width="1.5" stroke-linecap="round"/>
<path d="M16.0469 15.9499L22.1174 9.87932M26.327 5.79268L25.5894 3.14316C25.4535 2.70667 24.9283 2.53272 24.5743 2.82202C22.6595 4.38676 20.5737 6.4944 22.2771 9.81878C25.7093 11.4192 27.6686 9.26098 29.1709 7.44692C29.4698 7.08599 29.2895 6.54342 28.8394 6.41326L26.327 5.79268Z" stroke="#C6A664" stroke-width="1.5" stroke-linecap="round" stroke-linejoin="round"/>
</svg>
