<svg width="18" height="18" viewBox="0 0 18 18" fill="none" xmlns="http://www.w3.org/2000/svg">
<path d="M10.5553 2.91311C11.1142 2.30758 11.3936 2.00482 11.6906 1.82822C12.407 1.40209 13.2893 1.38884 14.0178 1.79326C14.3197 1.96087 14.6077 2.25511 15.1838 2.84359C15.7598 3.43207 16.0479 3.72631 16.2119 4.03472C16.6079 4.77886 16.5949 5.68012 16.1777 6.41205C16.0049 6.71539 15.7085 7.00086 15.1157 7.57177L8.06295 14.3647C6.93966 15.4467 6.378 15.9877 5.67605 16.2618C4.97409 16.536 4.2024 16.5158 2.65902 16.4755L2.44904 16.47C1.97918 16.4577 1.74425 16.4515 1.60769 16.2965C1.47113 16.1416 1.48977 15.9022 1.52706 15.4237L1.54731 15.1638C1.65226 13.8166 1.70473 13.1431 1.96778 12.5377C2.23083 11.9322 2.68458 11.4406 3.59207 10.4574L10.5553 2.91311Z" stroke="white" stroke-width="1.35" stroke-linejoin="round"/>
<path d="M9.75 3.00098L15 8.25098" stroke="white" stroke-width="1.35" stroke-linejoin="round"/>
<path d="M10.5 16.501H16.5" stroke="white" stroke-width="1.35" stroke-linecap="round" stroke-linejoin="round"/>
</svg>
