<svg width="24" height="24" viewBox="0 0 24 24" fill="none" xmlns="http://www.w3.org/2000/svg">
<rect width="24" height="24" rx="12" fill="#C6A664"/>
<path d="M12 6H7.33333C6.97971 6 6.64057 6.14048 6.39052 6.39052C6.14048 6.64057 6 6.97971 6 7.33333V16.6667C6 17.0203 6.14048 17.3594 6.39052 17.6095C6.64057 17.8595 6.97971 18 7.33333 18H16.6667C17.0203 18 17.3594 17.8595 17.6095 17.6095C17.8595 17.3594 18 17.0203 18 16.6667V12" stroke="white" stroke-width="1.33333" stroke-linecap="round" stroke-linejoin="round"/>
<path d="M16.2514 5.75015C16.5166 5.48493 16.8763 5.33594 17.2514 5.33594C17.6264 5.33594 17.9861 5.48493 18.2514 5.75015C18.5166 6.01537 18.6656 6.37508 18.6656 6.75015C18.6656 7.12522 18.5166 7.48493 18.2514 7.75015L12.2427 13.7595C12.0844 13.9176 11.8888 14.0334 11.674 14.0962L9.7587 14.6562C9.70133 14.6729 9.64052 14.6739 9.58264 14.6591C9.52475 14.6442 9.47192 14.6141 9.42966 14.5719C9.38741 14.5296 9.35729 14.4768 9.34246 14.4189C9.32763 14.361 9.32863 14.3002 9.34536 14.2428L9.90536 12.3275C9.96838 12.1129 10.0844 11.9175 10.2427 11.7595L16.2514 5.75015Z" stroke="white" stroke-width="1.33333" stroke-linecap="round" stroke-linejoin="round"/>
</svg>
