<svg width="36" height="36" viewBox="0 0 36 36" fill="none" xmlns="http://www.w3.org/2000/svg">
<rect width="36" height="36" rx="7.11111" fill="#C6A664"/>
<path d="M21.6868 11.8376L22.5118 11.0126C23.1953 10.3291 24.3033 10.3291 24.9868 11.0126C25.6702 11.696 25.6702 12.8041 24.9868 13.4876L24.1618 14.3125M21.6868 11.8376L16.1373 17.387C15.7144 17.81 15.4144 18.3398 15.2693 18.9201L14.666 21.3333L17.0793 20.73C17.6595 20.585 18.1893 20.2849 18.6123 19.862L24.1618 14.3125M21.6868 11.8376L24.1618 14.3125" stroke="white" stroke-width="1.5" stroke-linejoin="round"/>
<path d="M23.8333 19.2498C23.8333 21.9894 23.8332 23.3592 23.0767 24.2812C22.9382 24.4499 22.7834 24.6047 22.6146 24.7432C21.6927 25.4998 20.3228 25.4998 17.5833 25.4998H17.1667C14.024 25.4998 12.4526 25.4998 11.4763 24.5235C10.5 23.5473 10.5 21.9758 10.5 18.8332V18.4165C10.5 15.6769 10.5 14.3072 11.2566 13.3852C11.3951 13.2164 11.5499 13.0616 11.7187 12.9231C12.6407 12.1665 14.0104 12.1665 16.75 12.1665" stroke="white" stroke-width="1.5" stroke-linecap="round" stroke-linejoin="round"/>
</svg>
