<svg width="20" height="20" viewBox="0 0 20 20" fill="none" xmlns="http://www.w3.org/2000/svg">
<path d="M17.6962 8.44824C16.6021 6.61574 14.1461 3.54163 10.0003 3.54163C5.85447 3.54163 3.39854 6.61574 2.30437 8.44824C1.73187 9.40491 1.73187 10.5942 2.30437 11.5517C3.39854 13.3842 5.85447 16.4583 10.0003 16.4583C14.1461 16.4583 16.6021 13.3842 17.6962 11.5517C18.2687 10.5942 18.2687 9.40574 17.6962 8.44824ZM16.6236 10.91C15.6653 12.515 13.5295 15.2083 10.0003 15.2083C6.47113 15.2083 4.3353 12.5158 3.37697 10.91C3.04197 10.3483 3.04197 9.65078 3.37697 9.08911C4.3353 7.48411 6.47113 4.79081 10.0003 4.79081C13.5295 4.79081 15.6653 7.48328 16.6236 9.08911C16.9595 9.65161 16.9595 10.3483 16.6236 10.91ZM10.0003 6.45829C8.04697 6.45829 6.45863 8.04746 6.45863 9.99996C6.45863 11.9525 8.04697 13.5416 10.0003 13.5416C11.9536 13.5416 13.542 11.9525 13.542 9.99996C13.542 8.04746 11.9536 6.45829 10.0003 6.45829ZM10.0003 12.2916C8.73613 12.2916 7.70863 11.2641 7.70863 9.99996C7.70863 8.73579 8.73613 7.70829 10.0003 7.70829C11.2645 7.70829 12.292 8.73579 12.292 9.99996C12.292 11.2641 11.2645 12.2916 10.0003 12.2916Z" fill="#C6A664"/>
</svg>
