<svg width="20" height="20" viewBox="0 0 20 20" fill="none" xmlns="http://www.w3.org/2000/svg">
<path d="M17.6899 11.5566C16.5932 13.3866 14.1324 16.4583 9.99907 16.4583C9.19657 16.4583 8.40413 16.3366 7.64413 16.0958C7.31497 15.9916 7.13327 15.6408 7.23744 15.3117C7.34077 14.9817 7.69487 14.8017 8.02153 14.9042C8.65903 15.1058 9.32407 15.2083 9.99907 15.2083C13.5174 15.2083 15.6575 12.5166 16.6191 10.9116C16.9591 10.3483 16.9591 9.6508 16.6208 9.08913C16.3324 8.6033 15.9799 8.10661 15.599 7.64911C15.3782 7.38328 15.415 6.98918 15.6808 6.76918C15.9475 6.54835 16.3407 6.58495 16.5616 6.84995C16.9832 7.35745 17.3748 7.90995 17.6932 8.44745C18.2707 9.40328 18.2707 10.5966 17.6899 11.5566ZM8.3849 12.4984L2.94076 17.9425C2.8191 18.0641 2.65907 18.1258 2.49907 18.1258C2.33907 18.1258 2.17905 18.065 2.05738 17.9425C1.81321 17.6983 1.81321 17.3025 2.05738 17.0583L4.70326 14.4124C3.59659 13.4582 2.79244 12.3641 2.30661 11.555C1.72827 10.5966 1.72824 9.40336 2.30824 8.44419C3.4049 6.61419 5.86574 3.54246 9.99907 3.54246C11.5282 3.54246 12.9699 3.97491 14.2949 4.82074L17.0566 2.0591C17.3007 1.81493 17.6966 1.81493 17.9408 2.0591C18.1849 2.30327 18.1849 2.69913 17.9408 2.9433L8.38652 12.4975C8.38652 12.4975 8.38654 12.4984 8.38571 12.4984C8.38488 12.4984 8.3849 12.4975 8.3849 12.4984ZM8.00648 11.1092L11.1083 8.00738C10.7733 7.81822 10.3974 7.70913 9.99907 7.70913C8.73574 7.70913 7.70822 8.73663 7.70822 10.0008C7.70822 10.3983 7.81814 10.7742 8.00648 11.1092ZM5.58827 13.5266L7.09828 12.0166C6.68578 11.4307 6.45822 10.735 6.45822 9.99917C6.45822 8.04667 8.04657 6.4575 9.99907 6.4575C10.7357 6.4575 11.4307 6.68505 12.0165 7.09755L13.3757 5.7383C12.3216 5.1208 11.1924 4.79002 9.99907 4.79002C6.48074 4.79002 4.34066 7.48169 3.379 9.08669C3.039 9.65002 3.03904 10.3475 3.37737 10.9092C3.82487 11.6567 4.56827 12.6674 5.58827 13.5266ZM12.2557 10.3625C12.1057 11.3292 11.3274 12.1083 10.3624 12.2575C10.0216 12.31 9.78747 12.6291 9.83997 12.97C9.88831 13.2791 10.1541 13.4999 10.4566 13.4999C10.4883 13.4999 10.5208 13.4974 10.5525 13.4924C12.075 13.2574 13.2557 12.0767 13.4907 10.5534C13.5432 10.2117 13.3099 9.8934 12.9682 9.84007C12.6349 9.78923 12.3082 10.0209 12.2557 10.3625Z" fill="#C6A664"/>
</svg>
