<svg width="88" height="26" viewBox="0 0 88 26" fill="none" xmlns="http://www.w3.org/2000/svg">
<rect width="88" height="26" rx="13" fill="white"/>
<rect x="0.5" y="0.5" width="87" height="25" rx="12.5" stroke="#C6A664" stroke-opacity="0.5"/>
<g clip-path="url(#clip0_5423_8279)">
<path d="M16.0091 8.00894L17.0356 10.079C17.1756 10.3672 17.5489 10.6436 17.8639 10.6965L19.7245 11.0082C20.9144 11.2081 21.1944 12.0785 20.3369 12.9371L18.8904 14.3956C18.6454 14.6426 18.5113 15.1189 18.5871 15.46L19.0013 17.2655C19.3279 18.6945 18.5754 19.2473 17.3215 18.5004L15.5775 17.4595C15.2625 17.2714 14.7434 17.2714 14.4226 17.4595L12.6786 18.5004C11.4304 19.2473 10.6722 18.6886 10.9988 17.2655L11.4129 15.46C11.4888 15.1189 11.3546 14.6426 11.1096 14.3956L9.66313 12.9371C8.81155 12.0785 9.08569 11.2081 10.2756 11.0082L12.1362 10.6965C12.4453 10.6436 12.8186 10.3672 12.9586 10.079L13.9851 8.00894C14.5451 6.88569 15.455 6.88569 16.0091 8.00894Z" stroke="#C6A664" stroke-linecap="round" stroke-linejoin="round"/>
</g>
<path d="M34.0918 17H32.7793V8.54492H38.0586V9.67578H34.0918V12.3535H37.7246V13.4609H34.0918V17ZM40.8418 16.1035C41.7266 16.1035 42.418 15.4941 42.418 14.6914V14.2051L40.9004 14.2988C40.1445 14.3516 39.7168 14.6855 39.7168 15.2129C39.7168 15.752 40.1621 16.1035 40.8418 16.1035ZM40.4902 17.1055C39.2832 17.1055 38.4395 16.3555 38.4395 15.248C38.4395 14.1699 39.2656 13.5078 40.7305 13.4258L42.418 13.3262V12.8516C42.418 12.166 41.9551 11.7559 41.1816 11.7559C40.4492 11.7559 39.9922 12.1074 39.8809 12.6582H38.6855C38.7559 11.5449 39.7051 10.7246 41.2285 10.7246C42.7227 10.7246 43.6777 11.5156 43.6777 12.752V17H42.4648V15.9863H42.4355C42.0781 16.6719 41.2988 17.1055 40.4902 17.1055ZM50.1699 10.8359L47.9609 17H46.6016L44.3809 10.8359H45.7285L47.2754 15.7637H47.2988L48.8457 10.8359H50.1699ZM53.3691 17.1172C51.6055 17.1172 50.4453 15.9043 50.4453 13.918C50.4453 11.9375 51.6113 10.7246 53.3691 10.7246C55.127 10.7246 56.293 11.9375 56.293 13.918C56.293 15.9043 55.1328 17.1172 53.3691 17.1172ZM53.3691 16.0742C54.3652 16.0742 55.0039 15.2891 55.0039 13.918C55.0039 12.5527 54.3594 11.7676 53.3691 11.7676C52.3789 11.7676 51.7344 12.5527 51.7344 13.918C51.7344 15.2891 52.3789 16.0742 53.3691 16.0742ZM57.2715 17V10.8359H58.4785V11.8848H58.5078C58.7129 11.1641 59.2637 10.7363 59.9902 10.7363C60.1719 10.7363 60.3301 10.7656 60.4238 10.7832V11.9609C60.3242 11.9199 60.1016 11.8906 59.8555 11.8906C59.041 11.8906 58.5371 12.4355 58.5371 13.3086V17H57.2715ZM61.25 17V10.8359H62.5156V17H61.25ZM61.8828 9.93359C61.4785 9.93359 61.1504 9.61133 61.1504 9.21289C61.1504 8.80859 61.4785 8.48633 61.8828 8.48633C62.293 8.48633 62.6211 8.80859 62.6211 9.21289C62.6211 9.61133 62.293 9.93359 61.8828 9.93359ZM64.1797 9.37695H65.4512V10.8359H66.623V11.8379H65.4512V15.2363C65.4512 15.7695 65.6855 16.0098 66.2012 16.0098C66.3301 16.0098 66.5352 15.998 66.6172 15.9805V16.9824C66.4766 17.0176 66.1953 17.041 65.9141 17.041C64.666 17.041 64.1797 16.5664 64.1797 15.377V11.8379H63.2832V10.8359H64.1797V9.37695ZM70.0918 11.7441C69.207 11.7441 68.5859 12.418 68.5215 13.3496H71.6035C71.5742 12.4062 70.9766 11.7441 70.0918 11.7441ZM71.5977 15.1895H72.7988C72.623 16.3145 71.5566 17.1172 70.1445 17.1172C68.334 17.1172 67.2383 15.8926 67.2383 13.9473C67.2383 12.0137 68.3516 10.7246 70.0918 10.7246C71.8027 10.7246 72.8691 11.9316 72.8691 13.8008V14.2344H68.5156V14.3105C68.5156 15.3828 69.1602 16.0918 70.1738 16.0918C70.8945 16.0918 71.4277 15.7285 71.5977 15.1895ZM73.7422 12.582C73.7422 11.4805 74.7148 10.7246 76.1562 10.7246C77.5273 10.7246 78.4883 11.4922 78.5293 12.5879H77.3398C77.2812 12.0312 76.8301 11.6855 76.1211 11.6855C75.4355 11.6855 74.9785 12.0195 74.9785 12.5059C74.9785 12.8867 75.2832 13.1445 75.9219 13.3027L76.959 13.543C78.2012 13.8418 78.6699 14.3105 78.6699 15.2188C78.6699 16.3438 77.6211 17.1172 76.1094 17.1172C74.6504 17.1172 73.6836 16.3613 73.584 15.2305H74.8379C74.9375 15.8223 75.3945 16.1504 76.168 16.1504C76.9297 16.1504 77.3984 15.834 77.3984 15.3359C77.3984 14.9434 77.1641 14.7266 76.5195 14.5625L75.418 14.293C74.3047 14.0234 73.7422 13.4434 73.7422 12.582Z" fill="#4A4C56"/>
<defs>
<clipPath id="clip0_5423_8279">
<rect width="14" height="14" fill="white" transform="translate(8 6)"/>
</clipPath>
</defs>
</svg>
