<svg width="48" height="48" viewBox="0 0 48 48" fill="none" xmlns="http://www.w3.org/2000/svg">
<rect x="0.5" y="0.5" width="47" height="47" rx="23.5" fill="#F8FAFB"/>
<rect x="0.5" y="0.5" width="47" height="47" rx="23.5" stroke="#DFE1E7"/>
<path d="M33.8055 22.0415H33V22H24V26H29.6515C28.827 28.3285 26.6115 30 24 30C20.6865 30 18 27.3135 18 24C18 20.6865 20.6865 18 24 18C25.5295 18 26.921 18.577 27.9805 19.5195L30.809 16.691C29.023 15.0265 26.634 14 24 14C18.4775 14 14 18.4775 14 24C14 29.5225 18.4775 34 24 34C29.5225 34 34 29.5225 34 24C34 23.3295 33.931 22.675 33.8055 22.0415Z" fill="#FFC107"/>
<path d="M15.1562 19.3455L18.4417 21.755C19.3307 19.554 21.4838 18 24.0033 18C25.5328 18 26.9243 18.577 27.9838 19.5195L30.8123 16.691C29.0262 15.0265 26.6372 14 24.0033 14C20.1623 14 16.8312 16.1685 15.1562 19.3455Z" fill="#FF3D00"/>
<path d="M23.9963 34.0003C26.5793 34.0003 28.9263 33.0118 30.7008 31.4043L27.6058 28.7853C26.5682 29.5749 25.3 30.0017 23.9963 30.0003C21.3953 30.0003 19.1867 28.3418 18.3547 26.0273L15.0938 28.5398C16.7487 31.7783 20.1098 34.0003 23.9963 34.0003Z" fill="#4CAF50"/>
<path d="M33.8055 22.0415H33V22H24V26H29.6515C29.2571 27.1082 28.5467 28.0766 27.608 28.7855L27.6095 28.7845L30.7045 31.4035C30.4855 31.6025 34 29 34 24C34 23.3295 33.931 22.675 33.8055 22.0415Z" fill="#1976D2"/>
</svg>
