<svg width="18" height="18" viewBox="0 0 18 18" fill="none" xmlns="http://www.w3.org/2000/svg">
<path d="M2.25 12L5.60225 8.64773C5.85692 8.3931 6.20234 8.25 6.5625 8.25C6.92266 8.25 7.26808 8.3931 7.52273 8.64773L10.5 11.625M10.5 11.625L11.625 12.75M10.5 11.625L11.9773 10.1477C12.2319 9.8931 12.5774 9.75 12.9375 9.75C13.2976 9.75 13.6431 9.8931 13.8977 10.1477L15.75 12" stroke="#4A4C56" stroke-width="1.5" stroke-linecap="round" stroke-linejoin="round"/>
<path d="M11.625 6C11.8321 6 12 5.8321 12 5.625C12 5.41789 11.8321 5.25 11.625 5.25M11.625 6C11.4179 6 11.25 5.8321 11.25 5.625C11.25 5.41789 11.4179 5.25 11.625 5.25M11.625 6V5.25" stroke="#4A4C56" stroke-width="1.5" stroke-linecap="round" stroke-linejoin="round"/>
<path d="M2.77152 14.8104C1.87305 13.7584 1.87305 12.1723 1.87305 9C1.87305 5.8277 1.87305 4.24155 2.77152 3.18957C2.89911 3.04018 3.03823 2.90106 3.18762 2.77348C4.2396 1.875 5.82575 1.875 8.99805 1.875C12.1703 1.875 13.7565 1.875 14.8084 2.77348C14.9578 2.90106 15.097 3.04018 15.2245 3.18957C16.123 4.24155 16.123 5.8277 16.123 9C16.123 12.1723 16.123 13.7584 15.2245 14.8104C15.097 14.9598 14.9578 15.0989 14.8084 15.2265C13.7565 16.125 12.1703 16.125 8.99805 16.125C5.82575 16.125 4.2396 16.125 3.18762 15.2265C3.03823 15.0989 2.89911 14.9598 2.77152 14.8104Z" stroke="#4A4C56" stroke-width="1.5" stroke-linecap="round" stroke-linejoin="round"/>
</svg>
