<svg width="48" height="48" viewBox="0 0 48 48" fill="none" xmlns="http://www.w3.org/2000/svg">
<rect width="48" height="48" rx="24" fill="#C6A664"/>
<path d="M16.4922 27.3346L20.2169 23.6099C20.4999 23.327 20.8837 23.168 21.2839 23.168C21.684 23.168 22.0678 23.327 22.3508 23.6099L25.6589 26.918M25.6589 26.918L26.9089 28.168M25.6589 26.918L27.3003 25.2766C27.5832 24.9936 27.967 24.8346 28.3672 24.8346C28.7674 24.8346 29.1512 24.9936 29.4341 25.2766L31.4922 27.3346" stroke="white" stroke-width="1.5" stroke-linecap="round" stroke-linejoin="round"/>
<path d="M23.9987 16.082C20.4739 16.082 18.7115 16.082 17.5427 17.0803C17.3767 17.2221 17.2221 17.3767 17.0803 17.5427C16.082 18.7115 16.082 20.4739 16.082 23.9987C16.082 27.5234 16.082 29.2859 17.0803 30.4547C17.2221 30.6207 17.3767 30.7753 17.5427 30.917C18.7115 31.9154 20.4739 31.9154 23.9987 31.9154C27.5234 31.9154 29.2859 31.9154 30.4547 30.917C30.6207 30.7753 30.7753 30.6207 30.917 30.4547C31.9154 29.2859 31.9154 27.5234 31.9154 23.9987" stroke="white" stroke-width="1.5" stroke-linecap="round" stroke-linejoin="round"/>
<path d="M26.9062 18.582C27.3977 18.0763 28.706 16.082 29.4062 16.082C30.1065 16.082 31.4147 18.0763 31.9062 18.582M29.4062 16.4987V21.9154" stroke="white" stroke-width="1.5" stroke-linecap="round" stroke-linejoin="round"/>
</svg>
