<svg width="32" height="32" viewBox="0 0 32 32" fill="none" xmlns="http://www.w3.org/2000/svg">
<path d="M21.3333 5.33594C24.2333 5.35194 25.804 5.48127 26.828 6.50527C28 7.67727 28 9.5626 28 13.3333V21.3333C28 25.1053 28 26.9906 26.828 28.1626C25.6573 29.3333 23.7707 29.3333 20 29.3333H12C8.22933 29.3333 6.34267 29.3333 5.172 28.1626C4 26.9893 4 25.1053 4 21.3333V13.3333C4 9.5626 4 7.67727 5.172 6.50527C6.196 5.48127 7.76667 5.35194 10.6667 5.33594" stroke="#C6A664" stroke-width="1.5"/>
<path d="M14.0007 18.6667H22.6673M9.33398 18.6667H10.0007M9.33398 14H10.0007M9.33398 23.3333H10.0007M14.0007 14H22.6673M14.0007 23.3333H22.6673" stroke="#C6A664" stroke-width="1.5" stroke-linecap="round"/>
<path d="M10.666 4.66663C10.666 4.13619 10.8767 3.62749 11.2518 3.25241C11.6269 2.87734 12.1356 2.66663 12.666 2.66663H19.3327C19.8631 2.66663 20.3718 2.87734 20.7469 3.25241C21.122 3.62749 21.3327 4.13619 21.3327 4.66663V5.99996C21.3327 6.53039 21.122 7.0391 20.7469 7.41417C20.3718 7.78925 19.8631 7.99996 19.3327 7.99996H12.666C12.1356 7.99996 11.6269 7.78925 11.2518 7.41417C10.8767 7.0391 10.666 6.53039 10.666 5.99996V4.66663Z" stroke="#C6A664" stroke-width="1.5"/>
</svg>
