<svg width="20" height="20" viewBox="0 0 20 20" fill="none" xmlns="http://www.w3.org/2000/svg">
<path d="M3.66121 3.33389C3.33398 3.84648 3.33398 4.50955 3.33398 5.8357V14.164C3.33398 15.4901 3.33398 16.1532 3.66121 16.6658C3.71964 16.7573 3.78515 16.8442 3.85713 16.9255C4.26018 17.3808 4.89787 17.563 6.17323 17.9273C7.45182 18.2926 8.09112 18.4752 8.55398 18.2013C8.63432 18.1538 8.70898 18.0974 8.77673 18.0333C9.16732 17.6636 9.16732 16.9988 9.16732 15.6693V4.33035C9.16732 3.00085 9.16732 2.33609 8.77673 1.96635C8.70898 1.90224 8.63432 1.84589 8.55398 1.79839C8.09112 1.52447 7.45182 1.70709 6.17323 2.07233C4.89787 2.43665 4.26018 2.61882 3.85713 3.07421C3.78515 3.15554 3.71964 3.24236 3.66121 3.33389Z" stroke="#EB3D4D" stroke-width="1.5" stroke-linecap="round" stroke-linejoin="round"/>
<path d="M9.16602 3.3335H10.8469C12.4317 3.3335 13.224 3.3335 13.7163 3.82165C13.9908 4.09381 14.1123 4.45845 14.166 5.00016M9.16602 16.6668H10.8469C12.4317 16.6668 13.224 16.6668 13.7163 16.1787C13.9908 15.9065 14.1123 15.5419 14.166 15.0002" stroke="#EB3D4D" stroke-width="1.5" stroke-linecap="round" stroke-linejoin="round"/>
<path d="M17.4993 9.99989H11.666M16.2493 7.9165C16.2493 7.9165 18.3327 9.45089 18.3327 9.99989C18.3327 10.5489 16.2493 12.0831 16.2493 12.0831" stroke="#EB3D4D" stroke-width="1.5" stroke-linecap="round" stroke-linejoin="round"/>
</svg>
