<svg width="32" height="32" viewBox="0 0 32 32" fill="none" xmlns="http://www.w3.org/2000/svg">
<path d="M10.5146 13.3334C11.429 15.1958 12.4059 16.9399 12.1803 19.0856C11.8196 22.5159 7.66016 23.807 5.00029 25.3872C3.25767 26.4226 3.9092 29.3334 6.04776 29.3334C8.64063 29.3334 10.9548 29.1264 13.2941 28.0268L17.8815 25.2038C18.5183 24.9044 19.3217 25.032 20 25.3334" stroke="#C6A664" stroke-width="1.5" stroke-linecap="round" stroke-linejoin="round"/>
<path d="M21.3473 13.3334C20.4136 15.1958 19.416 16.9399 19.6464 19.0856C20.0148 22.5159 24.2623 23.807 26.9785 25.3872C28.758 26.4226 28.0927 29.3334 25.9088 29.3334C23.2611 29.3334 20.8979 29.1264 18.5089 28.0268L13.8244 25.2038C13.2776 24.952 12.6104 25.0023 12 25.2038" stroke="#C6A664" stroke-width="1.5" stroke-linecap="round" stroke-linejoin="round"/>
<path d="M13.3281 5.33317C13.3281 6.80593 14.522 7.99984 15.9948 7.99984C17.4676 7.99984 18.6615 6.80593 18.6615 5.33317C18.6615 3.86041 17.4676 2.6665 15.9948 2.6665C14.522 2.6665 13.3281 3.86041 13.3281 5.33317Z" stroke="#C6A664" stroke-width="1.5"/>
<path d="M4 21.3333C7.26115 21.3333 8.72491 17.7265 9.19113 15.2388C9.31284 14.5894 9.50995 13.942 9.94167 13.4418C11.4087 11.7423 13.5787 10.6666 16 10.6666C18.4213 10.6666 20.5913 11.7423 22.0583 13.4418C22.49 13.942 22.6872 14.5894 22.8089 15.2388C23.2751 17.7265 24.7388 21.3333 28 21.3333" stroke="#C6A664" stroke-width="1.5" stroke-linecap="round" stroke-linejoin="round"/>
</svg>
