<svg width="20" height="20" viewBox="0 0 20 20" fill="none" xmlns="http://www.w3.org/2000/svg">
<path d="M11.8082 16.9924C15.294 16.7607 18.0707 13.9447 18.2992 10.4094C18.3438 9.71758 18.3438 9.00108 18.2992 8.30924C18.0707 4.77398 15.294 1.95793 11.8082 1.72622C10.6189 1.64717 9.37735 1.64733 8.19051 1.72622C4.70467 1.95793 1.92802 4.77398 1.69955 8.30924C1.65484 9.00108 1.65484 9.71758 1.69955 10.4094C1.78276 11.697 2.35221 12.8892 3.02261 13.8958C3.41186 14.6006 3.15496 15.4802 2.74952 16.2485C2.45719 16.8025 2.31102 17.0795 2.42838 17.2796C2.54575 17.4797 2.8079 17.4861 3.33221 17.4988C4.36907 17.5241 5.06825 17.2301 5.62325 16.8208C5.93801 16.5887 6.09541 16.4727 6.20388 16.4593C6.31235 16.446 6.52582 16.5339 6.95269 16.7097C7.33635 16.8677 7.78181 16.9652 8.19051 16.9924C9.37735 17.0713 10.6189 17.0715 11.8082 16.9924Z" stroke="#4A4C56" stroke-width="1.25" stroke-linejoin="round"/>
<path d="M7.08398 11.6667H12.9173M7.08398 7.5H10.0007" stroke="#4A4C56" stroke-width="1.25" stroke-linecap="round" stroke-linejoin="round"/>
</svg>
