<svg width="48" height="48" viewBox="0 0 48 48" fill="none" xmlns="http://www.w3.org/2000/svg">
<rect width="48" height="48" rx="24" fill="white"/>
<path d="M27.5 30C27.5 31.933 25.933 33.5 24 33.5C22.067 33.5 20.5 31.933 20.5 30" stroke="#C6A664" stroke-width="1.5" stroke-linecap="round" stroke-linejoin="round"/>
<path d="M31.2311 30H16.7689C15.7919 30 15 29.208 15 28.2311C15 27.762 15.1864 27.3121 15.5181 26.9803L16.1213 26.3771C16.6839 25.8145 17 25.0514 17 24.2558V21.5C17 17.634 20.134 14.5 24 14.5C27.866 14.5 31 17.634 31 21.5V24.2558C31 25.0514 31.3161 25.8145 31.8787 26.3771L32.4819 26.9803C32.8136 27.3121 33 27.762 33 28.2311C33 29.208 32.208 30 31.2311 30Z" fill="#C6A664" stroke="#C6A664" stroke-opacity="0.5" stroke-width="1.5" stroke-linecap="round" stroke-linejoin="round"/>
</svg>
