<svg width="60" height="60" viewBox="0 0 60 60" fill="none" xmlns="http://www.w3.org/2000/svg">
<path d="M23.9976 15.2803C24.8023 13.2399 27.6898 13.2399 28.4946 15.2803L30.7719 21.054C32.2459 24.7916 35.2043 27.7503 38.9421 29.2243L44.7159 31.5015C46.7561 32.3063 46.7561 35.1938 44.7159 35.9985L38.9421 38.2758C35.2043 39.7498 32.2459 42.7083 30.7719 46.446L28.4946 52.2198C27.6898 54.26 24.8023 54.26 23.9976 52.2198L21.7205 46.446C20.2464 42.7083 17.2877 39.7498 13.5501 38.2758L7.77638 35.9985C5.736 35.1938 5.736 32.3063 7.77638 31.5015L13.5501 29.2243C17.2877 27.7503 20.2464 24.7916 21.7205 21.054L23.9976 15.2803Z" fill="#C6A664"/>
<path d="M46.5557 9.53906C47.2611 11.3271 48.6768 12.743 50.4648 13.4482L51.2295 13.75L50.4648 14.0518C48.6768 14.757 47.2611 16.1729 46.5557 17.9609L46.2539 18.7256L45.9521 17.9609C45.2467 16.1729 43.8311 14.757 42.043 14.0518L41.2773 13.75L42.043 13.4482C43.8311 12.743 45.2467 11.3271 45.9521 9.53906L46.2539 8.77344L46.5557 9.53906Z" fill="white" stroke="#C6A664" stroke-width="3"/>
</svg>
