<svg width="60" height="60" viewBox="0 0 60 60" fill="none" xmlns="http://www.w3.org/2000/svg">
<path d="M13.3333 12.5C19.4845 12.4914 25.4212 14.7177 30 18.75V55C25.4212 50.9678 19.4845 48.7415 13.3333 48.75C9.4283 48.75 7.4758 48.75 6.61315 48.198C6.09525 47.8665 5.88365 47.6548 5.55215 47.1367C5 46.2743 5 44.7353 5 41.6573V21.0081C5 17.4386 5 15.6538 6.37185 14.2071C7.7437 12.7604 9.14808 12.6858 11.9568 12.5365C12.4125 12.5123 12.8715 12.5 13.3333 12.5Z" fill="#C6A664" stroke="white" stroke-linecap="round" stroke-linejoin="round"/>
<path d="M30 55.0025C34.5788 50.9702 40.5155 48.744 46.6668 48.7525C50.5718 48.7525 52.5243 48.7525 53.3867 48.2005C53.9048 47.869 54.1163 47.6573 54.4478 47.1395C55 46.2768 55 44.7378 55 41.6598V21.0106C55 17.4411 55 15.6564 53.6283 14.2097C52.2562 12.763 50.3088 12.6493 47.5 12.5" fill="#C6A664"/>
<path d="M30 55.0025C34.5788 50.9702 40.5155 48.744 46.6668 48.7525C50.5718 48.7525 52.5243 48.7525 53.3868 48.2005C53.9048 47.869 54.1163 47.6573 54.4478 47.1395C55 46.2768 55 44.7378 55 41.6598V21.0106C55 17.4411 55 15.6564 53.6282 14.2097C52.2562 12.763 50.3087 12.6493 47.5 12.5" stroke="white" stroke-linecap="round" stroke-linejoin="round"/>
<path d="M43.7638 5.04686C32.0723 7.08638 30 18.75 30 18.75V55C30 55 32.2168 42.818 45.001 41.397C46.3733 41.2445 47.5 40.144 47.5 38.7645V8.48273C47.5 6.41351 45.804 4.69096 43.7638 5.04686Z" fill="#C6A664" stroke="white" stroke-linecap="round" stroke-linejoin="round"/>
</svg>
