<svg width="32" height="32" viewBox="0 0 32 32" fill="none" xmlns="http://www.w3.org/2000/svg">
<rect width="32" height="32" rx="7.11111" fill="white"/>
<path d="M21.1077 16.6275C20.8458 17.6223 19.6085 18.3253 17.1337 19.7313C14.7413 21.0904 13.5452 21.7701 12.5812 21.4969C12.1827 21.3839 11.8195 21.1695 11.5267 20.874C10.8184 20.1593 10.8184 18.7732 10.8184 16.0009C10.8184 13.2286 10.8184 11.8424 11.5267 11.1278C11.8195 10.8323 12.1827 10.6178 12.5812 10.5049C13.5452 10.2317 14.7413 10.9113 17.1337 12.2704C19.6085 13.6764 20.8458 14.3794 21.1077 15.3742C21.2158 15.7849 21.2158 16.2169 21.1077 16.6275Z" fill="#C6A664"/>
</svg>
