<svg width="20" height="20" viewBox="0 0 20 20" fill="none" xmlns="http://www.w3.org/2000/svg">
<path d="M9.6225 2.72156C9.65846 2.65623 9.71131 2.60176 9.77551 2.56382C9.83971 2.52587 9.91292 2.50586 9.9875 2.50586C10.0621 2.50586 10.1353 2.52587 10.1995 2.56382C10.2637 2.60176 10.3165 2.65623 10.3525 2.72156L12.8125 7.39156C12.8712 7.4997 12.953 7.5935 13.0523 7.66624C13.1515 7.73899 13.2656 7.78886 13.3863 7.81228C13.5071 7.8357 13.6316 7.83209 13.7508 7.80171C13.87 7.77133 13.981 7.71493 14.0758 7.63656L17.64 4.58323C17.7084 4.52758 17.7927 4.49508 17.8808 4.4904C17.9689 4.48572 18.0561 4.5091 18.1301 4.55718C18.204 4.60527 18.2608 4.67557 18.2922 4.75797C18.3236 4.84037 18.3281 4.93062 18.305 5.01573L15.9433 13.5541C15.8951 13.7288 15.7913 13.883 15.6475 13.9934C15.5037 14.1038 15.3279 14.1643 15.1467 14.1657H4.82916C4.64777 14.1645 4.47175 14.104 4.32782 13.9937C4.18389 13.8833 4.07991 13.7289 4.03166 13.5541L1.67083 5.01656C1.6477 4.93146 1.65218 4.84121 1.68361 4.7588C1.71505 4.6764 1.77181 4.6061 1.84575 4.55802C1.91968 4.50993 2.00696 4.48655 2.09503 4.49123C2.1831 4.49591 2.26741 4.52841 2.33583 4.58406L5.89916 7.6374C5.99399 7.71576 6.105 7.77216 6.22422 7.80254C6.34343 7.83292 6.46789 7.83653 6.58866 7.81311C6.70944 7.78969 6.82352 7.73982 6.92274 7.66708C7.02195 7.59434 7.10383 7.50053 7.1625 7.3924L9.6225 2.72156Z" fill="#C6A664" stroke="#C6A664" stroke-width="1.66667" stroke-linecap="round" stroke-linejoin="round"/>
<path d="M4.17188 17.5H15.8385" stroke="#C6A664" stroke-width="1.66667" stroke-linecap="round" stroke-linejoin="round"/>
</svg>
