<svg width="32" height="32" viewBox="0 0 32 32" fill="none" xmlns="http://www.w3.org/2000/svg">
<path d="M16.0052 29.3332C23.369 29.3332 29.3385 23.3636 29.3385 15.9998C29.3385 8.63604 23.369 2.6665 16.0052 2.6665C8.64141 2.6665 2.67188 8.63604 2.67188 15.9998C2.67188 23.3636 8.64141 29.3332 16.0052 29.3332Z" stroke="#C6A664" stroke-width="1.5"/>
<path d="M14.3327 13.3332C14.3327 12.0761 14.3327 11.4476 13.9181 11.057C13.5037 10.6665 12.8366 10.6665 11.5023 10.6665C10.168 10.6665 9.50089 10.6665 9.08638 11.057C8.67188 11.4476 8.67188 12.0761 8.67188 13.3332C8.67188 14.5902 8.67188 15.2188 9.08638 15.6093C9.50089 15.9998 10.168 15.9998 11.5023 15.9998C12.8366 15.9998 13.5037 15.9998 13.9181 15.6093C14.3327 15.2188 14.3327 14.5902 14.3327 13.3332ZM14.3327 13.3332V16.0914C14.3327 18.5361 12.5526 20.6093 10.0871 21.3332M23.3385 13.3332C23.3385 12.0761 23.3385 11.4476 22.924 11.057C22.5095 10.6665 21.8424 10.6665 20.5081 10.6665C19.1739 10.6665 18.5067 10.6665 18.0923 11.057C17.6777 11.4476 17.6777 12.0761 17.6777 13.3332C17.6777 14.5902 17.6777 15.2188 18.0923 15.6093C18.5067 15.9998 19.1739 15.9998 20.5081 15.9998C21.8424 15.9998 22.5095 15.9998 22.924 15.6093C23.3385 15.2188 23.3385 14.5902 23.3385 13.3332ZM23.3385 13.3332V16.0914C23.3385 18.5361 21.5584 20.6093 19.0929 21.3332" stroke="#C6A664" stroke-width="1.5" stroke-linecap="round"/>
</svg>
