<svg width="48" height="48" viewBox="0 0 48 48" fill="none" xmlns="http://www.w3.org/2000/svg">
<rect width="48" height="48" rx="24" fill="#C6A664"/>
<path d="M28.1654 19.8327V23.166C28.1654 25.4672 26.2999 27.3327 23.9987 27.3327C21.6975 27.3327 19.832 25.4672 19.832 23.166V19.8327C19.832 17.5315 21.6975 15.666 23.9987 15.666C26.2999 15.666 28.1654 17.5315 28.1654 19.8327Z" stroke="white" stroke-width="1.5"/>
<path d="M28.168 19.834H25.668M28.168 23.1673H25.668" stroke="white" stroke-width="1.5" stroke-linecap="round"/>
<path d="M30.6654 23.166C30.6654 26.8479 27.6806 29.8327 23.9987 29.8327M23.9987 29.8327C20.3168 29.8327 17.332 26.8479 17.332 23.166M23.9987 29.8327V32.3327M23.9987 32.3327H26.4987M23.9987 32.3327H21.4987" stroke="white" stroke-width="1.5" stroke-linecap="round"/>
</svg>
