<svg width="20" height="20" viewBox="0 0 20 20" fill="none" xmlns="http://www.w3.org/2000/svg">
<path d="M17.7652 5.95083L17.3539 5.237C17.0428 4.69714 16.8873 4.42722 16.6226 4.31958C16.358 4.21194 16.0586 4.29688 15.4601 4.46674L14.4432 4.75316C14.0611 4.84129 13.6601 4.79129 13.3111 4.612L13.0304 4.45003C12.7312 4.25837 12.501 3.97578 12.3736 3.64363L12.0953 2.81248C11.9123 2.26246 11.8208 1.98745 11.603 1.83015C11.3852 1.67285 11.0959 1.67285 10.5172 1.67285H9.58823C9.00965 1.67285 8.72032 1.67285 8.50248 1.83015C8.28469 1.98745 8.1932 2.26246 8.01022 2.81248L7.73192 3.64363C7.60452 3.97578 7.37436 4.25837 7.07513 4.45003L6.79439 4.612C6.44543 4.79129 6.04447 4.84129 5.6623 4.75316L4.64544 4.46674C4.04682 4.29688 3.74752 4.21194 3.48287 4.31958C3.21822 4.42722 3.06269 4.69714 2.75161 5.237L2.34029 5.95083C2.0487 6.45688 1.9029 6.7099 1.9312 6.97925C1.95949 7.2486 2.15467 7.46566 2.54503 7.89978L3.40423 8.86034C3.61423 9.12618 3.76332 9.58951 3.76332 10.0061C3.76332 10.4228 3.61428 10.886 3.40426 11.1519L2.54503 12.1125C2.15467 12.5467 1.9595 12.7637 1.9312 13.0331C1.9029 13.3024 2.0487 13.5554 2.34029 14.0614L2.7516 14.7753C3.06267 15.3151 3.21822 15.5851 3.48287 15.6927C3.74752 15.8003 4.04683 15.7154 4.64546 15.5455L5.66227 15.2591C6.04451 15.1709 6.44554 15.221 6.79454 15.4003L7.07523 15.5623C7.37441 15.754 7.60452 16.0365 7.7319 16.3687L8.01022 17.1999C8.1932 17.7499 8.28469 18.0249 8.50248 18.1823C8.72032 18.3395 9.00965 18.3395 9.58823 18.3395H10.5172C11.0959 18.3395 11.3852 18.3395 11.603 18.1823C11.8208 18.0249 11.9123 17.7499 12.0953 17.1999L12.3736 16.3687C12.501 16.0365 12.7311 15.754 13.0303 15.5623L13.311 15.4003C13.66 15.221 14.061 15.1709 14.4432 15.2591L15.4601 15.5455C16.0586 15.7154 16.358 15.8003 16.6226 15.6927C16.8873 15.5851 17.0428 15.3151 17.3539 14.7753L17.7652 14.0614C18.0568 13.5554 18.2026 13.3024 18.1743 13.0331C18.146 12.7637 17.9508 12.5467 17.5605 12.1125L16.7012 11.1519C16.4912 10.886 16.3421 10.4228 16.3421 10.0061C16.3421 9.58951 16.4913 9.12618 16.7012 8.86034L17.5605 7.89978C17.9508 7.46566 18.146 7.2486 18.1743 6.97925C18.2026 6.7099 18.0568 6.45688 17.7652 5.95083Z" stroke="#C6A664" stroke-width="1.5" stroke-linecap="round"/>
<path d="M12.929 9.99967C12.929 11.6105 11.6232 12.9163 10.0123 12.9163C8.40151 12.9163 7.0957 11.6105 7.0957 9.99967C7.0957 8.38884 8.40151 7.08301 10.0123 7.08301C11.6232 7.08301 12.929 8.38884 12.929 9.99967Z" stroke="#C6A664" stroke-width="1.5"/>
</svg>
