<svg width="32" height="32" viewBox="0 0 32 32" fill="none" xmlns="http://www.w3.org/2000/svg">
<path d="M23.159 21.6951L27.2854 20.3701C28.7766 19.8912 29.1523 17.9904 27.9516 16.9987L24.7206 14.3296M23.159 21.6951L20.8315 22.4425C19.8031 22.7728 18.8316 23.2547 17.9507 23.8717L16.1626 25.1243M23.159 21.6951L23.242 19.7024C23.2882 18.5937 23.5134 17.4993 23.9092 16.46L24.7206 14.3296M23.159 21.6951L22.9855 25.8589C22.9227 27.3672 21.2232 28.2455 19.9214 27.4425L16.1626 25.1243M24.7206 14.3296L26.208 10.4239C26.7519 8.99555 25.5038 7.52963 23.9758 7.80221L19.666 8.57104M24.7206 14.3296L23.0932 12.9854C22.2464 12.2859 21.5156 11.4614 20.9268 10.5414L19.666 8.57104M16.1626 25.1243L12.5819 27.6323C11.3325 28.5073 9.58614 27.7329 9.42887 26.2339L8.9876 22.0277M16.1626 25.1243L14.0779 23.8384C13.1617 23.2733 12.1633 22.8483 11.1169 22.578L8.9876 22.0277M8.9876 22.0277L4.82522 20.9521C3.30898 20.5604 2.81962 18.6865 3.95675 17.6267L7.0491 14.7445M8.9876 22.0277L8.57668 18.1109L7.0491 14.7445M7.0491 14.7445L5.34144 10.9812C4.70838 9.58607 5.86731 8.04621 7.41142 8.23083L11.8014 8.75571M7.0491 14.7445L8.78355 13.1279C9.5887 12.3775 10.2697 11.5083 10.802 10.5518L11.8014 8.75571M11.8014 8.75571L13.8786 5.02288C14.6114 3.706 16.5163 3.64899 17.3294 4.91961L19.666 8.57104M11.8014 8.75571L14.2842 9.05256C15.3488 9.17985 16.4271 9.14885 17.4823 8.9606L19.666 8.57104" stroke="#C6A664" stroke-width="2" stroke-linejoin="round"/>
</svg>
