<svg width="32" height="32" viewBox="0 0 32 32" fill="none" xmlns="http://www.w3.org/2000/svg">
<path d="M19.0151 4.79851C17.5935 3.37684 16.8827 2.66602 15.9993 2.66602C15.116 2.66602 14.4052 3.37684 12.9835 4.79851C12.1304 5.65162 11.285 6.0477 10.0688 6.0477C9.00682 6.0477 7.49592 5.84172 6.66602 6.6786C5.84267 7.50887 6.04772 9.01355 6.04772 10.0688C6.04772 11.2851 5.65162 12.1304 4.79848 12.9836C3.37684 14.4052 2.66603 15.116 2.66602 15.9993C2.66604 16.8825 3.37687 17.5935 4.79852 19.0151C5.75423 19.9708 6.04772 20.5879 6.04772 21.9299C6.04772 22.9919 5.84176 24.5028 6.67867 25.3327C7.50892 26.156 9.01359 25.9509 10.0688 25.9509C11.364 25.9509 11.9877 26.2043 12.9121 27.1287C13.6992 27.9159 14.7544 29.3327 15.9993 29.3327C17.2443 29.3327 18.2995 27.9159 19.0865 27.1287C20.0109 26.2043 20.6347 25.9509 21.9299 25.9509C22.9851 25.9509 24.4897 26.156 25.32 25.3327M25.32 25.3327C26.1569 24.5028 25.9509 22.9919 25.9509 21.9299C25.9509 20.5879 26.2444 19.9708 27.2001 19.0151C28.6219 17.5935 29.3327 16.8825 29.3327 15.9993C29.3327 15.116 28.6219 14.4052 27.2001 12.9836M25.32 25.3327H25.3327" stroke="#C6A664" stroke-width="1.5" stroke-linecap="round" stroke-linejoin="round"/>
<path d="M10.666 13.7429C10.666 13.7429 13.666 13.3327 15.9993 18.666C15.9993 18.666 22.7444 5.33268 29.3327 2.66602" stroke="#C6A664" stroke-width="1.5" stroke-linecap="round" stroke-linejoin="round"/>
</svg>
