<svg width="32" height="32" viewBox="0 0 32 32" fill="none" xmlns="http://www.w3.org/2000/svg">
<path d="M25.3333 29.3334L18.6667 17.3334L12 29.3334" stroke="#C6A664" stroke-width="1.5" stroke-linecap="round" stroke-linejoin="round"/>
<path d="M21.2261 5.33337L9.36954 12.3412C8.0599 13.1153 7.61117 14.8296 8.36731 16.1704L9.73637 18.598C10.4925 19.9387 12.1671 20.398 13.4768 19.624L25.3333 12.6162" stroke="#C6A664" stroke-width="1.5" stroke-linejoin="round"/>
<path d="M21.6208 5.94079C21.0184 4.89687 21.3758 3.56199 22.4193 2.95929C23.4628 2.35657 24.797 2.71425 25.3994 3.75818L29.0354 10.0589C29.6378 11.1028 29.2804 12.4377 28.2369 13.0404C27.1934 13.6432 25.8592 13.2854 25.2568 12.2415L21.6208 5.94079Z" stroke="#C6A664" stroke-width="1.5" stroke-linecap="round" stroke-linejoin="round"/>
<path d="M2.67188 19.0193L3.6561 20.8429M3.6561 20.8429L4.64033 22.6667M3.6561 20.8429L8.67188 18" stroke="#C6A664" stroke-width="1.5" stroke-linecap="round" stroke-linejoin="round"/>
</svg>
